<svg width="30" height="23" viewBox="0 0 30 23" fill="none" xmlns="http://www.w3.org/2000/svg">
<path d="M1.5 9.54593C0.671573 9.54593 8.9407e-08 10.2175 8.9407e-08 11.0459C8.9407e-08 11.8744 0.671573 12.5459 1.5 12.5459V11.0459V9.54593ZM29.5607 12.1066C30.1464 11.5208 30.1464 10.5711 29.5607 9.98527L20.0147 0.439328C19.4289 -0.146459 18.4792 -0.146459 17.8934 0.439328C17.3076 1.02511 17.3076 1.97486 17.8934 2.56065L26.3787 11.0459L17.8934 19.5312C17.3076 20.117 17.3076 21.0667 17.8934 21.6525C18.4792 22.2383 19.4289 22.2383 20.0147 21.6525L29.5607 12.1066ZM1.5 11.0459V12.5459H28.5V11.0459V9.54593H1.5V11.0459Z" fill="#E3E3E3"/>
</svg>
