<svg width="30" height="23" viewBox="0 0 30 23" fill="none" xmlns="http://www.w3.org/2000/svg">
<path d="M28.5 12.5459C29.3284 12.5459 30 11.8744 30 11.0459C30 10.2175 29.3284 9.54593 28.5 9.54593V11.0459V12.5459ZM0.43934 9.98527C-0.146446 10.5711 -0.146446 11.5208 0.43934 12.1066L9.98528 21.6525C10.5711 22.2383 11.5208 22.2383 12.1066 21.6525C12.6924 21.0667 12.6924 20.117 12.1066 19.5312L3.62132 11.0459L12.1066 2.56065C12.6924 1.97486 12.6924 1.02511 12.1066 0.439328C11.5208 -0.146459 10.5711 -0.146459 9.98528 0.439328L0.43934 9.98527ZM28.5 11.0459V9.54593L1.5 9.54593V11.0459V12.5459L28.5 12.5459V11.0459Z" fill="#E3E3E3"/>
</svg>
