<svg width="26" height="30" viewBox="0 0 26 30" fill="none" xmlns="http://www.w3.org/2000/svg">
<path d="M1.625 25.5C1.16459 25.5 0.778922 25.356 0.468006 25.068C0.157089 24.78 0.00108894 24.424 5.60344e-06 24C-0.00107773 23.576 0.154922 23.22 0.468006 22.932C0.781089 22.644 1.16676 22.5 1.625 22.5H3.25V12C3.25 9.925 3.92709 8.0815 5.28125 6.4695C6.63542 4.8575 8.39583 3.801 10.5625 3.3V2.25C10.5625 1.625 10.7998 1.094 11.2743 0.657003C11.7487 0.220003 12.324 0.00100341 13 3.40909e-06C13.676 -0.000996591 14.2518 0.218003 14.7274 0.657003C15.203 1.096 15.4397 1.627 15.4375 2.25V3.3C17.6042 3.8 19.3646 4.8565 20.7187 6.4695C22.0729 8.0825 22.75 9.926 22.75 12V22.5H24.375C24.8354 22.5 25.2216 22.644 25.5336 22.932C25.8456 23.22 26.0011 23.576 26 24C25.9989 24.424 25.8429 24.7805 25.532 25.0695C25.2211 25.3585 24.8354 25.502 24.375 25.5H1.625ZM13 30C12.1063 30 11.3414 29.7065 10.7055 29.1195C10.0696 28.5325 9.75108 27.826 9.75 27H16.25C16.25 27.825 15.932 28.5315 15.2961 29.1195C14.6602 29.7075 13.8948 30.001 13 30ZM6.5 22.5H19.5V12C19.5 10.35 18.8635 8.9375 17.5906 7.7625C16.3177 6.5875 14.7875 6 13 6C11.2125 6 9.68229 6.5875 8.40938 7.7625C7.13646 8.9375 6.5 10.35 6.5 12V22.5Z" fill="#1B1B1B"/>
</svg>
