<svg width="24" height="12" viewBox="0 0 24 12" fill="none" xmlns="http://www.w3.org/2000/svg">
<path d="M10.5349 11.4255L0.418605 2.17021C0.27907 2.04255 0.174884 1.90468 0.106047 1.7566C0.0372096 1.60851 0.00186046 1.44851 0 1.2766C0 0.93617 0.128372 0.638297 0.385116 0.382978C0.64186 0.127659 0.978604 0 1.39535 0H22.6046C23.0232 0 23.3609 0.127659 23.6177 0.382978C23.8744 0.638297 24.0018 0.93617 24 1.2766C24 1.3617 23.8604 1.65958 23.5814 2.17021L13.4651 11.4255C13.2325 11.6383 13 11.7872 12.7674 11.8723C12.5349 11.9574 12.2791 12 12 12C11.7209 12 11.4651 11.9574 11.2326 11.8723C11 11.7872 10.7674 11.6383 10.5349 11.4255Z" fill="#1B1B1B"/>
</svg>
