<svg width="33" height="31" viewBox="0 0 33 31" fill="none" xmlns="http://www.w3.org/2000/svg">
<path d="M11.9109 15.5C10.6734 15.5 9.64219 15.0641 8.81719 14.1922C7.99219 13.3203 7.66562 12.3031 7.8375 11.1406L8.50781 6.39375C8.78281 4.55313 9.67656 3.02702 11.1891 1.81544C12.7016 0.603856 14.4719 -0.0012896 16.5 2.06337e-06C18.5281 0.00129373 20.2984 0.607086 21.8109 1.81738C23.3234 3.02767 24.2172 4.55313 24.4922 6.39375L25.1625 11.1406C25.3344 12.3031 25.0078 13.3203 24.1828 14.1922C23.3578 15.0641 22.3266 15.5 21.0891 15.5H11.9109ZM11.9109 11.625H21.0891L20.4187 6.975C20.2812 6.07083 19.8433 5.32813 19.1049 4.74688C18.3666 4.16563 17.4982 3.875 16.5 3.875C15.5017 3.875 14.6334 4.16563 13.8951 4.74688C13.1567 5.32813 12.7187 6.07083 12.5812 6.975L11.9109 11.625ZM0 27.125V25.575C0 24.4771 0.301125 23.4683 0.903375 22.5486C1.50563 21.629 2.3045 20.9263 3.3 20.4406C5.43125 19.4396 7.59687 18.6891 9.79687 18.1892C11.9969 17.6894 14.2312 17.4388 16.5 17.4375C18.7687 17.4362 21.0031 17.6868 23.2031 18.1892C25.4031 18.6917 27.5687 19.4422 29.7 20.4406C30.6969 20.925 31.4964 21.6277 32.0987 22.5486C32.7009 23.4696 33.0014 24.4784 33 25.575V27.125C33 28.1906 32.5964 29.1032 31.7893 29.8627C30.9822 30.6222 30.0107 31.0013 28.875 31H4.125C2.99062 31 2.01987 30.6209 1.21275 29.8627C0.405625 29.1045 0.001375 28.1919 0 27.125ZM4.125 27.125H28.875V25.575C28.875 25.2198 28.7808 24.8969 28.5924 24.6063C28.4041 24.3156 28.1545 24.0896 27.8437 23.9281C25.9875 23.0562 24.1141 22.4027 22.2234 21.9674C20.3328 21.5321 18.425 21.3138 16.5 21.3125C14.575 21.3112 12.6672 21.5295 10.7766 21.9674C8.88594 22.4053 7.0125 23.0588 5.15625 23.9281C4.84687 24.0896 4.59731 24.3156 4.40756 24.6063C4.21781 24.8969 4.12362 25.2198 4.125 25.575V27.125Z" fill="#1B1B1B"/>
</svg>
